<svg id="Capa_1" enable-background="new 0 0 512 512" height="512" viewBox="0 0 512 512" width="512" xmlns="http://www.w3.org/2000/svg"><g><path d="m507.606 110.468-106.075-106.075c-5.858-5.858-15.357-5.858-21.215 0l-22.329 22.329c-24.027 24.027-34.454 60.888-28.663 92.308l-150.165 150.166-43.269-43.132c-5.862-5.844-15.346-5.835-21.198.017l-83.974 83.974c-25.932 25.932-36.516 64.143-27.62 99.72l17.642 70.57c1.343 5.375 5.539 9.572 10.915 10.915 65.765 15.611 74.631 20.74 95.801 20.74 27.564-.002 54.629-10.859 74.488-30.718l83.974-83.974c5.859-5.858 5.859-15.357 0-21.215l-43.184-43.184 150.237-150.236c31.419 5.79 68.273-4.628 92.306-28.661l22.329-22.329c5.859-5.858 5.859-15.357 0-21.215zm-339.338 212.049 50.233-50.233 21.215 21.215-50.233 50.233c-5.862 5.862-15.352 5.864-21.215-.001-5.863-5.861-5.863-15.351 0-21.214zm71.447-71.448 35.916-35.916 21.215 21.215-35.916 35.916zm14.382 135.631-73.367 73.367c-18.524 18.522-45.816 26.082-71.229 19.729l-61.838-15.459-15.459-61.839c-6.353-25.412 1.206-52.705 19.729-71.228l73.384-73.384 32.629 32.525c-5.434 6.929-24.073 17.586-24.073 42.713 0 39.725 48.385 60.266 76.825 31.822l10.823-10.823zm63.964-171.546-21.215-21.215 44.535-44.536c5.483 8.277 12.507 15.434 21.223 21.208zm146.001-82.357c-23.306 23.306-68.551 30.451-91.931 7.071-23.379-23.379-16.243-68.617 7.071-91.931l11.722-11.722 84.86 84.86z"/></g></svg>